<svg xmlns="http://www.w3.org/2000/svg" viewBox="0 0 100 100" fill="none">
  <!-- Laurel wreath left -->
  <path d="M20 50c-2-8 0-16 4-23M18 55c-3-6-3-13-1-20M16 60c-2-5-2-12 0-18M22 45c-1-6 1-13 4-18M24 40c0-5 2-10 5-15" stroke="#1E376E" stroke-width="2.5" stroke-linecap="round"/>
  <path d="M15 65c-1-4 0-9 2-13M18 70c0-4 1-8 3-12M22 73c1-4 2-7 4-10M27 75c1-3 3-6 5-8M33 77c2-2 4-4 6-5" stroke="#1E376E" stroke-width="2.5" stroke-linecap="round"/>
  
  <!-- Laurel wreath right -->
  <path d="M80 50c2-8 0-16-4-23M82 55c3-6 3-13 1-20M84 60c2-5 2-12 0-18M78 45c1-6-1-13-4-18M76 40c0-5-2-10-5-15" stroke="#1E376E" stroke-width="2.5" stroke-linecap="round"/>
  <path d="M85 65c1-4 0-9-2-13M82 70c0-4-1-8-3-12M78 73c-1-4-2-7-4-10M73 75c-1-3-3-6-5-8M67 77c-2-2-4-4-6-5" stroke="#1E376E" stroke-width="2.5" stroke-linecap="round"/>
  
  <!-- Cross ribbons at bottom -->
  <path d="M35 82l15-5l15 5" stroke="#1E376E" stroke-width="2.5" stroke-linecap="round" stroke-linejoin="round"/>
  
  <!-- Center globe with medical cross -->
  <circle cx="50" cy="45" r="22" fill="none" stroke="#1E376E" stroke-width="3"/>
  
  <!-- Medical cross in center -->
  <rect x="45" y="35" width="10" height="20" rx="2" fill="#1E376E"/>
  <rect x="40" y="40" width="20" height="10" rx="2" fill="#1E376E"/>
  
  <!-- Curved lines representing globe/hands -->
  <!-- Blue curves (left side) -->
  <path d="M28 45c8-12 12-8 18-2" stroke="#357FE9" stroke-width="3.5" stroke-linecap="round"/>
  <path d="M32 55c6-8 10-6 14-2" stroke="#357FE9" stroke-width="3.5" stroke-linecap="round"/>
  <path d="M35 62c5-6 8-4 10 0" stroke="#357FE9" stroke-width="3.5" stroke-linecap="round"/>
  
  <!-- Yellow/orange curves (right side) -->
  <path d="M72 45c-8-12-12-8-18-2" stroke="#F7B526" stroke-width="3.5" stroke-linecap="round"/>
  <path d="M68 55c-6-8-10-6-14-2" stroke="#F7B526" stroke-width="3.5" stroke-linecap="round"/>
  <path d="M65 62c-5-6-8-4-10 0" stroke="#E96435" stroke-width="3.5" stroke-linecap="round"/>
</svg>