<svg width="1920" height="88" viewBox="0 0 1920 88" fill="none" xmlns="http://www.w3.org/2000/svg">
<path opacity="0.31" fill-rule="evenodd" clip-rule="evenodd" d="M932.811 37.4058L943.453 5.86996C944.532 2.67184 948 0.954182 951.198 2.03342C954.396 3.11262 956.114 6.58013 955.034 9.77825L943.033 45.3401C942.902 45.7628 942.725 46.1657 942.509 46.5434C941.586 48.1613 939.944 49.3162 938.018 49.5743C937.712 49.616 937.401 49.6346 937.088 49.6288H-18.1397C-21.5145 49.6288 -24.2508 46.8926 -24.2508 43.5173C-24.2508 40.142 -21.5145 37.4058 -18.1397 37.4058H932.811ZM1028.41 11.1099C1027.33 7.91174 1023.86 6.19408 1020.66 7.27332C1020.62 7.28907 1020.57 7.30523 1020.52 7.32198C1017.42 8.45344 1015.76 11.8667 1016.83 15.0182L1027.06 45.3369C1027.18 45.7416 1027.35 46.1283 1027.55 46.492C1028.01 47.3083 1028.63 47.9909 1029.37 48.5087C1030.07 49.0076 1030.89 49.3609 1031.77 49.5252C1032.18 49.6032 1032.61 49.6388 1033.04 49.6288H1933.81C1937.18 49.6288 1939.92 46.8926 1939.92 43.5173C1939.92 40.142 1937.18 37.4058 1933.81 37.4058H1037.28L1028.41 11.1099Z" fill="white"/>
<path fill-rule="evenodd" clip-rule="evenodd" d="M967.542 77.2554L985.444 24.2077C986.523 21.0096 989.991 19.292 993.189 20.3712C996.387 21.4504 998.105 24.9179 997.025 28.116L979.124 81.1637C978.044 84.3618 974.577 86.0794 971.379 85.0002C971.332 84.9846 971.286 84.9682 971.24 84.9516C968.131 83.82 966.479 80.407 967.542 77.2554V77.2554Z" fill="#C3DFE9"/>
<path fill-rule="evenodd" clip-rule="evenodd" d="M998.926 64.1572L1016.83 11.1096C1017.91 7.91146 1021.37 6.19382 1024.57 7.27301C1027.77 8.35226 1029.49 11.8198 1028.41 15.0179L1010.51 68.0655C1009.43 71.2636 1005.96 72.9813 1002.76 71.9021C1002.72 71.8864 1002.67 71.8701 1002.62 71.8534C999.514 70.7219 997.862 67.3089 998.926 64.1572V64.1572Z" fill="#C3DFE9"/>
<path fill-rule="evenodd" clip-rule="evenodd" d="M989.281 20.3704C992.479 19.2911 995.946 21.0087 997.025 24.2069L1010.51 64.1563C1011.59 67.3545 1009.87 70.822 1006.67 71.9012C1003.47 72.9804 1000 71.2627 998.925 68.0646L985.444 28.1152C984.38 24.9638 986.033 21.5505 989.142 20.419C989.188 20.4023 989.234 20.3861 989.281 20.3704V20.3704Z" fill="white"/>
<path fill-rule="evenodd" clip-rule="evenodd" d="M947.289 2.0346C950.487 0.955354 953.955 2.67304 955.034 5.87111L979.124 77.2562C980.203 80.4543 978.485 83.9218 975.287 85.001C972.089 86.0802 968.622 84.3626 967.542 81.1645L943.452 9.77943C942.389 6.62798 944.042 3.21471 947.15 2.08325C947.196 2.0665 947.242 2.05037 947.289 2.0346V2.0346Z" fill="white"/>
</svg>
